# xmcd
#
# Track frame offsets: 
#        187
#        17190
#        43372
#        66455
#        78022
#        97410
#        118887
#        131352
#        177392
#
# Disc length: 2545 seconds
#
# Revision: 2
# Processed by: cddbd v1.5.1PL2 Copyright (c) Steve Scherf et al.
# Submitted via: ExactAudioCopy v0.95b4
#
DISCID=8309ef09
DTITLE=B. B. King - Back in the Alley
DYEAR=1973
DGENRE=Blues
TTITLE0=Sweet Little Angel
TTITLE1=Watch Yourself
TTITLE2=Don't Answer the Dorr
TTITLE3=Paying the Cost to Be the Boss
TTITLE4=Sweet Sixteen
TTITLE5=Gambler's Blues
TTITLE6=I'm gonna Do What They Do to Me
TTITLE7=Lucille
TTITLE8=Please Love Me
EXTD=
EXTT0=
EXTT1=
EXTT2=
EXTT3=
EXTT4=
EXTT5=
EXTT6=
EXTT7=
EXTT8=
PLAYORDER=
